<svg width="16" height="17" viewBox="0 0 16 17" fill="none" xmlns="http://www.w3.org/2000/svg">
<path d="M13.3067 6.47335C12.86 5.98002 12.1867 5.69335 11.2533 5.59335V5.08668C11.2533 4.17335 10.8667 3.29335 10.1867 2.68001C9.5 2.05335 8.60667 1.76001 7.68 1.84668C6.08667 2.00001 4.74667 3.54001 4.74667 5.20668V5.59335C3.81334 5.69335 3.14 5.98002 2.69334 6.47335C2.04667 7.19335 2.06667 8.15335 2.14 8.82002L2.60667 12.5333C2.74667 13.8333 3.27334 15.1667 6.14 15.1667H9.86C12.7267 15.1667 13.2533 13.8333 13.3933 12.54L13.86 8.81335C13.9333 8.15335 13.9467 7.19335 13.3067 6.47335ZM7.77334 2.77335C8.44 2.71335 9.07334 2.92002 9.56667 3.36668C10.0533 3.80668 10.3267 4.43335 10.3267 5.08668V5.55335H5.67334V5.20668C5.67334 4.02001 6.65334 2.88002 7.77334 2.77335ZM5.61334 9.26668H5.60667C5.24 9.26668 4.94 8.96668 4.94 8.60002C4.94 8.23335 5.24 7.93335 5.60667 7.93335C5.98 7.93335 6.28 8.23335 6.28 8.60002C6.28 8.96668 5.98 9.26668 5.61334 9.26668ZM10.28 9.26668H10.2733C9.90667 9.26668 9.60667 8.96668 9.60667 8.60002C9.60667 8.23335 9.90667 7.93335 10.2733 7.93335C10.6467 7.93335 10.9467 8.23335 10.9467 8.60002C10.9467 8.96668 10.6467 9.26668 10.28 9.26668Z" fill="white"/>
</svg>
