<svg width="12" height="15" viewBox="0 0 12 15" fill="none" xmlns="http://www.w3.org/2000/svg">
<path d="M11.3067 5.47335C10.86 4.98002 10.1867 4.69335 9.25334 4.59335V4.08668C9.25334 3.17335 8.86667 2.29335 8.18667 1.68001C7.5 1.05335 6.60667 0.760015 5.68 0.846682C4.08667 1.00001 2.74667 2.54001 2.74667 4.20668V4.59335C1.81334 4.69335 1.14 4.98002 0.693337 5.47335C0.0466701 6.19335 0.0666701 7.15335 0.140003 7.82001L0.60667 11.5333C0.74667 12.8333 1.27334 14.1667 4.14 14.1667H7.86C10.7267 14.1667 11.2533 12.8333 11.3933 11.54L11.86 7.81335C11.9333 7.15335 11.9467 6.19335 11.3067 5.47335ZM5.77334 1.77335C6.44 1.71335 7.07334 1.92002 7.56667 2.36668C8.05334 2.80668 8.32667 3.43335 8.32667 4.08668V4.55335H3.67334V4.20668C3.67334 3.02002 4.65334 1.88002 5.77334 1.77335ZM3.61334 8.26668H3.60667C3.24 8.26668 2.94 7.96668 2.94 7.60002C2.94 7.23335 3.24 6.93335 3.60667 6.93335C3.98 6.93335 4.28 7.23335 4.28 7.60002C4.28 7.96668 3.98 8.26668 3.61334 8.26668ZM8.28 8.26668H8.27334C7.90667 8.26668 7.60667 7.96668 7.60667 7.60002C7.60667 7.23335 7.90667 6.93335 8.27334 6.93335C8.64667 6.93335 8.94667 7.23335 8.94667 7.60002C8.94667 7.96668 8.64667 8.26668 8.28 8.26668Z" fill="#766B6B"/>
</svg>
