<svg width="24" height="24" viewBox="0 0 24 24" fill="none" xmlns="http://www.w3.org/2000/svg">
<path fill-rule="evenodd" clip-rule="evenodd" d="M16.5 3H7.5C5.02522 3 3 5.02432 3 7.5V16.5C3 18.9748 5.02522 21 7.5 21H16.5C18.9748 21 21 18.9748 21 16.5V7.5C21 5.02432 18.9748 3 16.5 3ZM12 15.7499C9.92865 15.7499 8.24993 14.0704 8.24993 12C8.24993 9.92865 9.92865 8.24993 12 8.24993C14.0704 8.24993 15.7501 9.92865 15.7501 12C15.7501 14.0704 14.0704 15.7499 12 15.7499ZM15.7501 7.12492C15.7501 7.74615 16.2532 8.24992 16.8751 8.24992C17.497 8.24992 18.0001 7.74615 18.0001 7.12492C18.0001 6.5037 17.497 5.99992 16.8751 5.99992C16.2532 5.99992 15.7501 6.5037 15.7501 7.12492Z" fill="#766B6B"/>
</svg>
