<svg width="124" height="30" viewBox="0 0 124 30" fill="none" xmlns="http://www.w3.org/2000/svg">
<g clip-path="url(#clip0_812_2712)">
<path fill-rule="evenodd" clip-rule="evenodd" d="M79.1357 5.49101V6.09338V15.5178V15.9849C82.4685 16.3907 85.7949 16.7014 89.1552 16.712C89.1636 19.0411 89.1678 21.3724 89.1678 23.7079H89.5382C89.5382 21.3724 89.5424 19.0411 89.5508 16.712C92.9111 16.7014 96.2375 16.3907 99.5703 15.9849V15.5178V6.09549V5.49313C96.2587 5.08944 92.9513 4.78085 89.6122 4.76606L89.644 0.0020752H89.0663L89.098 4.76606C85.7589 4.78085 82.4515 5.08944 79.1399 5.49313L79.1357 5.49101ZM25.657 16.6591H28.0502V4.93092H25.657V16.6612V16.6591ZM64.7614 10.6756C66.5918 10.6735 68.3989 10.5002 70.206 10.2254C70.9593 10.1113 71.6999 9.98658 72.4384 9.8344V6.41253C71.6999 6.26035 70.9593 6.13565 70.206 6.02152C68.3841 5.74464 66.5643 5.57133 64.7191 5.57133C62.8739 5.57133 61.0541 5.74464 59.2322 6.02152C58.481 6.13565 57.7383 6.26035 56.9998 6.41253V10.6756H64.7593H64.7614ZM74.8317 16.6908H72.4384V12.8716L72.3961 12.861C71.6724 12.7131 70.9445 12.5905 70.2081 12.4785C68.3989 12.2037 66.5939 12.0304 64.7635 12.0283H57.004V16.6908H54.6108V6.32587V5.49313C57.9732 5.07887 61.3313 4.76606 64.7233 4.76606C68.1154 4.76606 71.4735 5.08098 74.8359 5.49313V6.04477V10.7559C72.7855 11.0074 70.735 11.223 68.6782 11.3519C70.735 11.4809 72.7833 11.6965 74.8359 11.948V11.9776V16.6887L74.8317 16.6908ZM31.3343 5.49101V7.00222C31.7787 6.88174 32.2231 6.76338 32.6696 6.65348C33.7784 6.38083 34.8787 6.18849 36.0087 6.01941C37.4539 5.80382 38.8992 5.64953 40.355 5.59247V16.6591H42.7483V5.59458C44.2041 5.64953 45.6493 5.80382 47.0946 6.02152C48.2225 6.19061 49.3249 6.38294 50.4337 6.65559C50.8802 6.7655 51.3246 6.88386 51.7689 7.00433V5.49313C48.3706 5.07887 44.9807 4.76606 41.5527 4.76606C38.1247 4.76606 34.7348 5.08098 31.3364 5.49313L31.3343 5.49101ZM106.168 10.0183V6.41253C106.907 6.26035 107.647 6.13565 108.401 6.02152C110.222 5.74464 112.042 5.57133 113.887 5.57133C115.733 5.57133 117.552 5.74464 119.374 6.02152C120.492 6.19061 121.581 6.38294 122.68 6.65559C123.122 6.7655 123.562 6.88386 124 7.00433V5.49313C120.638 5.07887 117.279 4.76606 113.887 4.76606C110.495 4.76606 107.137 5.08098 103.775 5.49313V6.32587V11.037H121.605V15.0655C120.866 15.2177 120.126 15.3424 119.372 15.4565C117.55 15.7313 115.731 15.9067 113.885 15.9067C112.04 15.9067 110.22 15.7334 108.398 15.4565C107.281 15.2874 106.191 15.0951 105.095 14.8224C104.653 14.7125 104.213 14.5942 103.775 14.4737V15.987C107.137 16.4013 110.495 16.7141 113.887 16.7141C117.279 16.7141 120.638 16.3991 124 15.987V15.3043V10.0225H121.607H106.17L106.168 10.0183ZM89.6038 5.57133C91.3812 5.58612 93.1375 5.75732 94.8939 6.01941C95.6472 6.13354 96.3899 6.25613 97.1305 6.40619V15.0676C96.3899 15.2177 95.6493 15.3424 94.8939 15.4544C93.1185 15.7207 91.3453 15.8919 89.5508 15.9025C89.5636 12.4573 89.5826 9.01645 89.6038 5.56922V5.57133ZM81.5713 6.40619C82.3119 6.25613 83.0525 6.13143 83.8079 6.01941C85.5663 5.75521 87.3205 5.58612 89.098 5.57133C89.1192 9.01856 89.1382 12.4595 89.1509 15.9046C87.3565 15.8919 85.5833 15.7207 83.8079 15.4565C83.0546 15.3424 82.3119 15.2198 81.5713 15.0697V6.4083V6.40619ZM1.66109 4.71956L11.7863 14.852L20.2272 6.5478L21.8333 4.46593L22.6226 5.31982L10.7876 17.1262L0 6.3301L1.66109 4.71956ZM11.6573 26.9268L10.8362 24.9528L9.99618 26.9268H11.6594H11.6573ZM10.5971 24.4645H11.0732L12.9163 28.7572H12.4487L11.8308 27.3157H9.82689L9.20478 28.7551H8.74137L10.5971 24.4624V24.4645ZM13.6252 25.5805H14.0315V25.9926C14.1098 25.8341 14.2219 25.7136 14.3721 25.6333C14.5224 25.553 14.6917 25.5107 14.8821 25.5107C15.0958 25.5107 15.2863 25.5509 15.4577 25.6333C15.6291 25.7158 15.7793 25.8341 15.9105 25.9926L15.9909 26.1152L16.0544 25.9926C16.1623 25.8426 16.3083 25.7242 16.4945 25.6376C16.6786 25.553 16.867 25.5107 17.0616 25.5107C17.233 25.5107 17.3981 25.5509 17.561 25.6291C17.724 25.7094 17.8869 25.8299 18.0498 25.9926C18.1662 26.1089 18.2466 26.2526 18.2932 26.4217C18.327 26.5527 18.3461 26.7282 18.3461 26.9437V28.7572H17.9165V26.986C17.9165 26.8359 17.9059 26.707 17.8869 26.5992C17.8678 26.4935 17.8255 26.3921 17.7599 26.3012C17.5822 26.0497 17.341 25.9229 17.0384 25.9229C16.7358 25.9229 16.5051 26.0434 16.3337 26.2822C16.2766 26.3646 16.2385 26.4618 16.2237 26.576C16.2089 26.6901 16.2004 26.8275 16.2004 26.986V28.7572H15.7709V26.9395C15.7709 26.8 15.7603 26.6838 15.7412 26.5908C15.7222 26.4978 15.682 26.4027 15.6185 26.3054C15.4408 26.0497 15.2016 25.9229 14.9033 25.9229C14.7594 25.9229 14.6282 25.9504 14.5118 26.0074C14.3933 26.0645 14.2917 26.1469 14.2071 26.2611C14.1457 26.3541 14.1034 26.4534 14.0844 26.5612C14.0653 26.6669 14.0547 26.7937 14.0547 26.9416V28.7593H13.6252V25.5805ZM22.1147 26.9332C22.0597 26.65 21.918 26.4111 21.6873 26.2167C21.4567 26.0201 21.1943 25.9229 20.9001 25.9229C20.606 25.9229 20.3309 26.018 20.0982 26.2082C19.8654 26.3984 19.7215 26.6394 19.6686 26.9353H22.1169L22.1147 26.9332ZM19.6665 27.3221C19.6665 27.6137 19.7913 27.8695 20.0389 28.0872C20.2865 28.3049 20.5616 28.4127 20.8642 28.4127C21.1054 28.4127 21.3318 28.3514 21.5455 28.2267C21.7592 28.102 21.9116 27.9329 22.0047 27.7215H22.4533C22.3412 28.0449 22.1401 28.3112 21.8502 28.5162C21.5625 28.7234 21.2472 28.8248 20.9044 28.8248C20.4431 28.8248 20.0495 28.6642 19.7236 28.3429C19.3977 28.0217 19.2348 27.6285 19.2348 27.1657C19.2348 26.7028 19.3956 26.3139 19.7152 25.9905C20.0347 25.6671 20.4283 25.5065 20.8938 25.5065C21.1414 25.5065 21.3762 25.5594 21.5984 25.6671C21.8206 25.7728 22.0111 25.925 22.174 26.1237C22.3137 26.2949 22.411 26.4745 22.4639 26.6647C22.5189 26.855 22.5464 27.0727 22.5464 27.3221H19.6665ZM23.4161 25.5784H23.8224V26.037C23.9049 25.8553 24.0255 25.7221 24.1885 25.6354C24.3514 25.5509 24.5376 25.5086 24.7471 25.5086V25.9335C24.5376 25.9335 24.3451 26.0074 24.1715 26.1554C24.0361 26.2716 23.9472 26.3879 23.907 26.5041C23.8668 26.6204 23.8457 26.7789 23.8457 26.9797V28.7572H23.4161V25.5784ZM25.4454 24.4624H25.8749V25.1937H25.4454V24.4624ZM25.4454 25.5784H25.8749V28.7572H25.4454V25.5784ZM30.0499 27.8272C29.906 28.1379 29.6986 28.3831 29.4278 28.5606C29.1569 28.7382 28.848 28.8269 28.5031 28.8269C28.0227 28.8269 27.6122 28.6684 27.2737 28.3535C26.9351 28.0386 26.7637 27.6412 26.7637 27.1614C26.7637 26.6817 26.933 26.3054 27.2737 25.9863C27.6122 25.6671 28.0164 25.5086 28.4861 25.5086C28.8353 25.5086 29.1527 25.6016 29.4405 25.7855C29.7283 25.9694 29.9335 26.223 30.0562 26.5443H29.5738C29.4616 26.3541 29.3072 26.204 29.1146 26.0899C28.9199 25.9778 28.7126 25.9208 28.4925 25.9208C28.1328 25.9208 27.8259 26.037 27.5741 26.2716C27.3223 26.5062 27.1954 26.8 27.1954 27.1551C27.1954 27.5102 27.316 27.8082 27.5593 28.0513C27.8027 28.2922 28.101 28.4127 28.4586 28.4127C28.702 28.4127 28.9136 28.3641 29.0934 28.2647C29.2712 28.1675 29.432 28.0217 29.5759 27.8251H30.052L30.0499 27.8272ZM31.2349 27.1805C31.2349 27.525 31.364 27.8145 31.6179 28.0555C31.8739 28.2943 32.1744 28.4148 32.5193 28.4148C32.8642 28.4148 33.1414 28.2922 33.3869 28.0491C33.6302 27.8061 33.753 27.5186 33.753 27.1847C33.753 26.8338 33.6345 26.5358 33.3954 26.2885C33.1562 26.0434 32.8621 25.9208 32.5087 25.9208C32.1554 25.9208 31.8612 26.0434 31.6094 26.2885C31.3597 26.5337 31.2349 26.8317 31.2349 27.1783V27.1805ZM34.1656 28.7572H33.753V28.159C33.6324 28.3746 33.4631 28.5395 33.2451 28.6557C33.0251 28.772 32.7838 28.829 32.5214 28.829C32.2739 28.829 32.0263 28.772 31.7829 28.66C31.5396 28.5479 31.3174 28.381 31.1206 28.1548C31.0508 28.0787 30.9852 27.954 30.9238 27.7849C30.8455 27.5715 30.8074 27.3601 30.8074 27.1466C30.8074 26.9522 30.8476 26.7535 30.9302 26.5443C31 26.371 31.0698 26.2505 31.1397 26.185C31.3682 25.9419 31.5946 25.7686 31.821 25.665C32.0474 25.5615 32.276 25.5107 32.513 25.5107C32.7817 25.5107 33.0251 25.5678 33.2494 25.6798C33.4715 25.7918 33.6429 25.9609 33.7572 26.185V25.5805H34.1698V28.7593L34.1656 28.7572ZM35.1771 25.5784H35.5833V26.037C35.8352 25.6841 36.1653 25.5086 36.5715 25.5086C36.7895 25.5086 36.9947 25.553 37.1915 25.6418C37.3883 25.7306 37.5576 25.8616 37.7015 26.037C37.8137 26.1807 37.8941 26.3435 37.9406 26.5253C37.9745 26.6647 37.9935 26.8507 37.9935 27.0832V28.7572H37.564V27.0832C37.564 26.874 37.5491 26.7176 37.5174 26.6119C37.4857 26.5083 37.4391 26.4132 37.3777 26.3266C37.1831 26.056 36.9101 25.9208 36.5567 25.9208C36.4022 25.9208 36.2562 25.9546 36.1187 26.0222C35.9812 26.0899 35.8669 26.185 35.778 26.3097C35.704 26.4069 35.6574 26.5168 35.6384 26.6415C35.6193 26.7662 35.6087 26.912 35.6087 27.0832V28.7572H35.1792V25.5784H35.1771ZM42.3928 27.8145C42.3928 27.9773 42.4478 28.1168 42.5578 28.2351C42.6678 28.3535 42.8054 28.4127 42.9683 28.4127C43.1313 28.4127 43.2603 28.3641 43.3661 28.2647C43.4719 28.1675 43.527 28.0407 43.527 27.8843C43.527 27.711 43.4656 27.5736 43.3408 27.4721C43.2434 27.3939 43.1101 27.3305 42.9429 27.2798C42.7737 27.2291 42.6636 27.1931 42.6086 27.1699C42.4964 27.1234 42.4012 27.0642 42.3272 26.9924C42.251 26.9205 42.1917 26.8317 42.1473 26.7282C42.1029 26.6246 42.0796 26.5126 42.0796 26.3921C42.0796 26.1385 42.1685 25.925 42.3441 25.7559C42.5197 25.5889 42.7377 25.5044 42.998 25.5044C43.2349 25.5044 43.4402 25.5889 43.6137 25.7601C43.7893 25.9313 43.8761 26.1321 43.8761 26.3646H43.4466C43.4466 26.2294 43.4 26.1216 43.3069 26.0391C43.2138 25.9588 43.0953 25.9165 42.9514 25.9165C42.8265 25.9165 42.7229 25.9588 42.6382 26.0434C42.5536 26.1279 42.5091 26.2315 42.5091 26.3562C42.5091 26.5105 42.5663 26.6309 42.6848 26.7155C42.7631 26.7704 42.89 26.8254 43.0678 26.8846C43.3556 26.9776 43.5629 27.079 43.6899 27.1847C43.8676 27.339 43.9586 27.5482 43.9586 27.8103C43.9586 28.1083 43.8634 28.3514 43.6709 28.5374C43.4783 28.7234 43.2307 28.8185 42.9281 28.8185C42.6615 28.8185 42.433 28.7191 42.2446 28.5183C42.0563 28.3197 41.9632 28.0808 41.9632 27.8061H42.3928V27.8145ZM45.1246 25.9673H44.4622V25.5784H45.1246V24.4624H45.5541V25.5784H46.2926V25.9673H45.5541V28.7551H45.1246V25.9673ZM47.3168 27.1783C47.3168 27.5229 47.4459 27.8124 47.6998 28.0534C47.9558 28.2922 48.2563 28.4127 48.6012 28.4127C48.9461 28.4127 49.2233 28.2901 49.4667 28.047C49.71 27.804 49.8328 27.5165 49.8328 27.1826C49.8328 26.8317 49.7143 26.5337 49.4752 26.2864C49.236 26.0412 48.9419 25.9187 48.5885 25.9187C48.2351 25.9187 47.941 26.0412 47.6892 26.2864C47.4395 26.5316 47.3147 26.8296 47.3147 27.1762L47.3168 27.1783ZM50.2475 28.7551H49.8349V28.1569C49.7143 28.3725 49.545 28.5374 49.327 28.6536C49.107 28.7699 48.8657 28.8269 48.6033 28.8269C48.3558 28.8269 48.1082 28.7699 47.8648 28.6578C47.6215 28.5458 47.3993 28.3789 47.2025 28.1527C47.1327 28.0766 47.0671 27.9519 47.0057 27.7828C46.9274 27.5694 46.8894 27.358 46.8894 27.1445C46.8894 26.9501 46.9296 26.7514 47.0121 26.5422C47.0819 26.3688 47.1517 26.2484 47.2216 26.1829C47.4501 25.9398 47.6765 25.7665 47.9029 25.6629C48.1272 25.5594 48.3579 25.5086 48.5949 25.5086C48.8615 25.5086 49.107 25.5657 49.3313 25.6777C49.5534 25.7897 49.7227 25.9588 49.8391 26.1829V25.5784H50.2517V28.7572L50.2475 28.7551ZM51.259 25.5763H51.6653V26.0349C51.9171 25.6819 52.2472 25.5065 52.6534 25.5065C52.8714 25.5065 53.0767 25.5509 53.2734 25.6397C53.4702 25.7284 53.6395 25.8595 53.7834 26.0349C53.8956 26.1786 53.976 26.3414 54.0225 26.5231C54.0585 26.6626 54.0754 26.8486 54.0754 27.0811V28.7551H53.6459V27.0811C53.6459 26.8719 53.6311 26.7155 53.5993 26.6098C53.5676 26.5062 53.521 26.4111 53.4597 26.3245C53.265 26.0539 52.992 25.9187 52.6386 25.9187C52.4842 25.9187 52.336 25.9525 52.1985 26.0201C52.061 26.0877 51.9467 26.1829 51.8578 26.3076C51.7838 26.4048 51.7372 26.5147 51.7182 26.6394C51.6991 26.7641 51.6885 26.9099 51.6885 27.0811V28.7551H51.259V25.5763ZM56.638 25.9187C56.2994 25.9187 56.0053 26.037 55.7598 26.2759C55.5143 26.5147 55.3916 26.8042 55.3916 27.1488C55.3916 27.4933 55.5122 27.7934 55.7556 28.0407C55.9989 28.288 56.2973 28.4106 56.6464 28.4106C56.9956 28.4106 57.2855 28.2859 57.533 28.0407C57.7806 27.7934 57.9033 27.4954 57.9033 27.1488C57.9033 26.8021 57.7785 26.5147 57.5309 26.2759C57.2812 26.0391 56.9829 25.9187 56.6358 25.9187H56.638ZM58.3371 28.753H57.9308V28.1717C57.6177 28.605 57.1881 28.8227 56.6464 28.8227C56.4137 28.8227 56.1894 28.772 55.9714 28.6684C55.7534 28.5648 55.5355 28.4 55.3133 28.1675C55.2287 28.0935 55.1483 27.9604 55.0742 27.768C55.0001 27.5736 54.9642 27.3707 54.9642 27.153C54.9642 26.6859 55.1313 26.2949 55.4678 25.9778C55.8042 25.6629 56.2063 25.5065 56.6739 25.5065C56.9215 25.5065 57.1585 25.5594 57.3807 25.6671C57.6029 25.7728 57.7785 25.9271 57.9076 26.13V24.4624H58.3371V28.7551V28.753ZM59.6554 27.1762C59.6554 27.5207 59.7845 27.8103 60.0384 28.0513C60.2945 28.2901 60.5949 28.4106 60.9399 28.4106C61.2848 28.4106 61.562 28.288 61.8074 28.0449C62.0508 27.8019 62.1735 27.5144 62.1735 27.1805C62.1735 26.8296 62.055 26.5316 61.8159 26.2843C61.5768 26.0391 61.2827 25.9165 60.9293 25.9165C60.5759 25.9165 60.2818 26.0391 60.03 26.2843C59.7803 26.5295 59.6554 26.8275 59.6554 27.1741V27.1762ZM62.5861 28.753H62.1735V28.1548C62.0529 28.3704 61.8836 28.5353 61.6657 28.6515C61.4456 28.7678 61.2044 28.8248 60.942 28.8248C60.6944 28.8248 60.4468 28.7678 60.2035 28.6557C59.9601 28.5437 59.7379 28.3767 59.5412 28.1506C59.4713 28.0745 59.4057 27.9498 59.3444 27.7807C59.2661 27.5672 59.228 27.3559 59.228 27.1424C59.228 26.948 59.2682 26.7493 59.3507 26.54C59.4205 26.3667 59.4904 26.2463 59.5602 26.1807C59.7887 25.9377 60.0152 25.7644 60.2416 25.6608C60.468 25.5572 60.6965 25.5065 60.9335 25.5065C61.2001 25.5065 61.4456 25.5636 61.6699 25.6756C61.8921 25.7876 62.0635 25.9567 62.1777 26.1807V25.5763H62.5904V28.7551L62.5861 28.753ZM63.5976 25.5741H64.0039V26.0328C64.0864 25.851 64.207 25.7179 64.37 25.6312C64.5329 25.5467 64.7191 25.5044 64.9286 25.5044V25.9292C64.7191 25.9292 64.5266 26.0032 64.353 26.1512C64.2176 26.2674 64.1287 26.3836 64.0885 26.4999C64.0483 26.6161 64.0272 26.7747 64.0272 26.9754V28.753H63.5976V25.5741ZM66.9981 25.9165C66.6595 25.9165 66.3654 26.0349 66.1199 26.2737C65.8745 26.5126 65.7517 26.8021 65.7517 27.1466C65.7517 27.4912 65.8724 27.7913 66.1157 28.0386C66.359 28.2859 66.6574 28.4084 67.0066 28.4084C67.3557 28.4084 67.6456 28.2837 67.8932 28.0386C68.1407 27.7913 68.2635 27.4933 68.2635 27.1466C68.2635 26.8 68.1386 26.5126 67.8911 26.2737C67.6414 26.037 67.343 25.9165 66.996 25.9165H66.9981ZM68.6973 28.7508H68.291V28.1696C67.9778 28.6029 67.5483 28.8206 67.0066 28.8206C66.7738 28.8206 66.5495 28.7699 66.3315 28.6663C66.1136 28.5627 65.8956 28.3979 65.6734 28.1654C65.5888 28.0914 65.5084 27.9583 65.4343 27.7659C65.3603 27.5715 65.3243 27.3686 65.3243 27.1509C65.3243 26.6838 65.4915 26.2928 65.8279 25.9757C66.1644 25.6608 66.5664 25.5044 67.0341 25.5044C67.2816 25.5044 67.5186 25.5572 67.7408 25.665C67.963 25.7707 68.1386 25.925 68.2677 26.1279V24.4603H68.6973V28.753V28.7508ZM69.8759 27.8103C69.8759 27.973 69.9309 28.1125 70.041 28.2309C70.151 28.3493 70.2885 28.4084 70.4515 28.4084C70.6144 28.4084 70.7435 28.3598 70.8493 28.2605C70.9551 28.1633 71.0101 28.0365 71.0101 27.8801C71.0101 27.7067 70.9487 27.5694 70.8239 27.4679C70.7266 27.3897 70.5932 27.3263 70.4261 27.2756C70.2568 27.2248 70.1468 27.1889 70.0917 27.1657C69.9796 27.1192 69.8844 27.06 69.8103 26.9881C69.7341 26.9163 69.6749 26.8275 69.6304 26.7239C69.586 26.6204 69.5627 26.5083 69.5627 26.3879C69.5627 26.1342 69.6516 25.9208 69.8272 25.7517C70.0029 25.5847 70.2208 25.5002 70.4811 25.5002C70.7181 25.5002 70.9233 25.5847 71.0969 25.7559C71.2704 25.9271 71.3592 26.1279 71.3592 26.3604H70.9297C70.9297 26.2251 70.8831 26.1173 70.79 26.0349C70.6969 25.9546 70.5784 25.9123 70.4345 25.9123C70.3097 25.9123 70.206 25.9546 70.1214 26.0391C70.0367 26.1237 69.9923 26.2272 69.9923 26.3519C69.9923 26.5062 70.0515 26.6267 70.1679 26.7112C70.2462 26.7662 70.3732 26.8212 70.5509 26.8803C70.8387 26.9733 71.0461 27.0748 71.173 27.1805C71.3508 27.3348 71.4418 27.544 71.4418 27.8061C71.4418 28.1041 71.3465 28.3472 71.154 28.5331C70.9614 28.7191 70.7139 28.8143 70.4134 28.8143C70.1468 28.8143 69.9182 28.7149 69.7299 28.5141C69.5416 28.3154 69.4485 28.0766 69.4485 27.8018H69.878L69.8759 27.8103ZM75.7712 27.1805C75.7712 27.5207 75.8918 27.8103 76.1309 28.0491C76.3721 28.288 76.6642 28.4084 77.0091 28.4084C77.354 28.4084 77.6481 28.2837 77.8809 28.0386C78.1136 27.7913 78.23 27.4912 78.23 27.1403C78.23 26.9628 78.2004 26.8042 78.139 26.6626C78.0798 26.5231 77.9846 26.39 77.8576 26.2653C77.6143 26.0349 77.3307 25.9187 77.0091 25.9187C76.6599 25.9187 76.3658 26.0412 76.1288 26.2864C75.8897 26.5316 75.7712 26.8317 75.7712 27.1826V27.1805ZM78.6617 27.1403C78.6617 27.5968 78.5009 27.99 78.1792 28.3239C77.8576 28.6557 77.4683 28.8227 77.0112 28.8227C76.5541 28.8227 76.1605 28.6621 75.8326 28.345C75.5046 28.0259 75.3416 27.6391 75.3416 27.1826C75.3416 26.726 75.5025 26.3245 75.8262 25.9969C76.15 25.6714 76.5435 25.5065 77.0091 25.5065C77.4746 25.5065 77.8364 25.6693 78.1665 25.9926C78.4967 26.3181 78.6617 26.7007 78.6617 27.1403ZM79.7705 25.963H79.2754V25.5741H79.7705C79.7705 25.217 79.8721 24.9422 80.0731 24.7499C80.2741 24.5554 80.5513 24.4603 80.9047 24.4603H80.9851V24.8492H80.9047C80.6804 24.8492 80.5069 24.9041 80.3842 25.0141C80.2614 25.124 80.2001 25.2909 80.2001 25.5107V25.5741H80.9915V25.963H80.2001V28.7508H79.7705V25.963ZM86.4276 25.9165C86.089 25.9165 85.7949 26.0349 85.5494 26.2737C85.304 26.5126 85.1812 26.8021 85.1812 27.1466C85.1812 27.4912 85.3018 27.7913 85.5452 28.0386C85.7885 28.2859 86.0869 28.4084 86.436 28.4084C86.7852 28.4084 87.0751 28.2837 87.3227 28.0386C87.5702 27.7913 87.693 27.4933 87.693 27.1466C87.693 26.8 87.5681 26.5126 87.3205 26.2737C87.0709 26.037 86.7725 25.9165 86.4255 25.9165H86.4276ZM88.1268 28.7508H87.7205V28.1696C87.4052 28.6029 86.9777 28.8206 86.436 28.8206C86.2033 28.8206 85.979 28.7699 85.761 28.6663C85.5431 28.5627 85.3251 28.3979 85.1029 28.1654C85.0183 28.0914 84.9379 27.9583 84.8638 27.7659C84.7898 27.5715 84.7538 27.3686 84.7538 27.1509C84.7538 26.6838 84.921 26.2928 85.2574 25.9757C85.5917 25.6608 85.9959 25.5044 86.4635 25.5044C86.7111 25.5044 86.9481 25.5572 87.1703 25.665C87.3925 25.7707 87.5681 25.925 87.6972 26.1279V24.4603H88.1268V28.753V28.7508ZM89.1382 24.4582H89.5678V25.1895H89.1382V24.4582ZM89.1382 25.5741H89.5678V28.753H89.1382V25.5741ZM90.8882 27.1741C90.8882 27.5186 91.0173 27.8082 91.2712 28.0491C91.5272 28.288 91.8277 28.4084 92.1726 28.4084C92.5175 28.4084 92.7947 28.2859 93.0381 28.0428C93.2814 27.7997 93.4042 27.5123 93.4042 27.1783C93.4042 26.8275 93.2857 26.5295 93.0465 26.2822C92.8074 26.037 92.5133 25.9144 92.1599 25.9144C91.8065 25.9144 91.5124 26.037 91.2606 26.2822C91.0109 26.5274 90.8861 26.8254 90.8861 27.172L90.8882 27.1741ZM93.8189 28.7508H93.4063V28.1527C93.2857 28.3683 93.1164 28.5331 92.8984 28.6494C92.6784 28.7656 92.4371 28.8227 92.1747 28.8227C91.9272 28.8227 91.6796 28.7656 91.4362 28.6536C91.1929 28.5416 90.9707 28.3746 90.7739 28.1485C90.7041 28.0724 90.6385 27.9477 90.5771 27.7786C90.4988 27.5651 90.4607 27.3538 90.4607 27.1403C90.4607 26.9459 90.5009 26.7472 90.5835 26.5379C90.6533 26.3646 90.7231 26.2441 90.793 26.1786C91.0215 25.9356 91.2479 25.7623 91.4743 25.6587C91.7008 25.5551 91.9293 25.5044 92.1663 25.5044C92.4329 25.5044 92.6784 25.5615 92.9027 25.6735C93.1248 25.7855 93.2941 25.9546 93.4105 26.1786V25.5741H93.8231V28.753L93.8189 28.7508ZM95.1372 27.1276C95.1372 27.4869 95.2515 27.7892 95.4821 28.0386C95.7106 28.2859 96.0048 28.4084 96.3624 28.4084C96.5401 28.4084 96.701 28.381 96.8406 28.3239C96.9803 28.2668 97.1136 28.176 97.2363 28.0491C97.3442 27.9371 97.4331 27.7997 97.4987 27.6412C97.5643 27.4806 97.5982 27.3221 97.5982 27.1636C97.5982 26.8042 97.4754 26.5062 97.23 26.2716C96.9866 26.037 96.6819 25.9187 96.3201 25.9187C95.99 25.9187 95.7085 26.0391 95.48 26.278C95.2494 26.5189 95.1351 26.8021 95.1351 27.1297L95.1372 27.1276ZM98.0108 28.2985C98.0108 28.586 97.9939 28.7931 97.9579 28.9263C97.9071 29.1207 97.8034 29.3004 97.6468 29.4695C97.4902 29.6385 97.2977 29.7675 97.0713 29.8584C96.8448 29.9492 96.6142 29.9957 96.3814 29.9957C96.0238 29.9957 95.6979 29.8879 95.3975 29.6724C95.0991 29.4568 94.9065 29.1757 94.8219 28.8269H95.2409C95.37 29.07 95.5287 29.2581 95.7233 29.387C95.918 29.516 96.1487 29.5815 96.4153 29.5815C96.6248 29.5815 96.8258 29.5329 97.0162 29.4356C97.2088 29.3384 97.3548 29.2031 97.4564 29.0298C97.5177 28.9178 97.5579 28.8121 97.5728 28.7107C97.5876 28.6092 97.596 28.4719 97.596 28.2985V28.1252C97.4987 28.3472 97.3294 28.5226 97.084 28.6494C96.8596 28.7656 96.6142 28.8227 96.3518 28.8227C96.1381 28.8227 95.9349 28.7825 95.7382 28.7001C95.5414 28.6198 95.3657 28.5057 95.207 28.3577C94.8727 28.0407 94.7055 27.6433 94.7055 27.1678C94.7055 26.9585 94.7415 26.7556 94.8092 26.5591C94.8685 26.3921 94.9341 26.2695 95.006 26.1892C95.2049 25.9419 95.4186 25.7623 95.6514 25.6502C95.8524 25.553 96.0788 25.5044 96.3264 25.5044C96.593 25.5044 96.8427 25.5615 97.0713 25.6777C97.2998 25.794 97.4754 25.9652 97.5939 26.1892V25.5741H98.0066V28.2985H98.0108ZM99.0222 25.5741H99.4285V26.0328C99.6803 25.6798 100.01 25.5044 100.417 25.5044C100.635 25.5044 100.84 25.5488 101.037 25.6376C101.234 25.7263 101.403 25.8574 101.547 26.0328C101.659 26.1765 101.739 26.3393 101.786 26.521C101.82 26.6605 101.839 26.8465 101.839 27.079V28.753H101.409V27.079C101.409 26.8698 101.394 26.7134 101.363 26.6077C101.331 26.5041 101.284 26.409 101.223 26.3224C101.028 26.0518 100.755 25.9165 100.402 25.9165C100.247 25.9165 100.101 25.9504 99.9639 26.018C99.8263 26.0856 99.7121 26.1807 99.6232 26.3054C99.5491 26.4027 99.5026 26.5126 99.4836 26.6373C99.4645 26.762 99.4539 26.9078 99.4539 27.079V28.753H99.0244V25.5741H99.0222ZM103.155 27.1805C103.155 27.5207 103.275 27.8103 103.515 28.0491C103.756 28.288 104.048 28.4084 104.393 28.4084C104.738 28.4084 105.032 28.2837 105.265 28.0386C105.497 27.7913 105.614 27.4912 105.614 27.1403C105.614 26.9628 105.584 26.8042 105.523 26.6626C105.463 26.5231 105.368 26.39 105.241 26.2653C104.998 26.0349 104.714 25.9187 104.393 25.9187C104.044 25.9187 103.749 26.0412 103.512 26.2864C103.273 26.5316 103.155 26.8317 103.155 27.1826V27.1805ZM106.045 27.1403C106.045 27.5968 105.885 27.99 105.563 28.3239C105.241 28.6557 104.852 28.8227 104.395 28.8227C103.938 28.8227 103.544 28.6621 103.216 28.345C102.888 28.0259 102.725 27.6391 102.725 27.1826C102.725 26.726 102.888 26.3245 103.212 25.9969C103.536 25.6714 103.929 25.5065 104.395 25.5065C104.86 25.5065 105.222 25.6693 105.552 25.9926C105.882 26.3181 106.048 26.7007 106.048 27.1403H106.045ZM107.103 27.8103C107.103 27.973 107.158 28.1125 107.268 28.2309C107.378 28.3493 107.516 28.4084 107.679 28.4084C107.842 28.4084 107.971 28.3598 108.077 28.2605C108.183 28.1633 108.238 28.0365 108.238 27.8801C108.238 27.7067 108.176 27.5694 108.051 27.4679C107.954 27.3897 107.821 27.3263 107.654 27.2756C107.484 27.2248 107.374 27.1889 107.319 27.1657C107.207 27.1192 107.112 27.06 107.038 26.9881C106.962 26.9163 106.902 26.8275 106.858 26.7239C106.814 26.6204 106.79 26.5083 106.79 26.3879C106.79 26.1342 106.879 25.9208 107.055 25.7517C107.23 25.5847 107.448 25.5002 107.709 25.5002C107.946 25.5002 108.151 25.5847 108.324 25.7559C108.498 25.9271 108.587 26.1279 108.587 26.3604H108.157C108.157 26.2251 108.111 26.1173 108.018 26.0349C107.924 25.9546 107.806 25.9123 107.662 25.9123C107.537 25.9123 107.434 25.9546 107.349 26.0391C107.264 26.1237 107.222 26.2272 107.222 26.3519C107.222 26.5062 107.279 26.6267 107.395 26.7112C107.474 26.7662 107.601 26.8212 107.778 26.8803C108.066 26.9733 108.274 27.0748 108.401 27.1805C108.578 27.3348 108.667 27.544 108.667 27.8061C108.667 28.1041 108.572 28.3472 108.379 28.5331C108.187 28.7191 107.939 28.8143 107.637 28.8143C107.37 28.8143 107.142 28.7149 106.953 28.5141C106.765 28.3154 106.672 28.0766 106.672 27.8018H107.101L107.103 27.8103ZM109.835 25.963H109.173V25.5741H109.835V24.4582H110.265V25.5741H111.003V25.963H110.265V28.7508H109.835V25.963ZM111.718 24.4582H112.148V25.1895H111.718V24.4582ZM111.718 25.5741H112.148V28.753H111.718V25.5741ZM116.323 27.823C116.179 28.1337 115.972 28.3789 115.701 28.5564C115.43 28.7339 115.121 28.8227 114.776 28.8227C114.296 28.8227 113.885 28.6642 113.547 28.3493C113.208 28.0343 113.037 27.637 113.037 27.1572C113.037 26.6774 113.206 26.3012 113.547 25.9821C113.885 25.6629 114.289 25.5044 114.759 25.5044C115.108 25.5044 115.426 25.5974 115.714 25.7813C115.999 25.9652 116.207 26.2188 116.329 26.54H115.847C115.735 26.3498 115.582 26.1998 115.388 26.0856C115.193 25.9736 114.986 25.9165 114.766 25.9165C114.406 25.9165 114.099 26.0328 113.847 26.2674C113.595 26.502 113.468 26.7958 113.468 27.1509C113.468 27.506 113.589 27.804 113.832 28.047C114.076 28.288 114.374 28.4084 114.732 28.4084C114.977 28.4084 115.187 28.3598 115.367 28.2605C115.544 28.1633 115.705 28.0174 115.849 27.8209H116.325L116.323 27.823ZM117.368 27.8124C117.368 27.9752 117.423 28.1147 117.533 28.233C117.643 28.3514 117.781 28.4106 117.944 28.4106C118.107 28.4106 118.236 28.3619 118.342 28.2626C118.448 28.1654 118.503 28.0386 118.503 27.8822C118.503 27.7089 118.441 27.5715 118.316 27.47C118.219 27.3918 118.086 27.3284 117.918 27.2777C117.749 27.227 117.639 27.191 117.584 27.1678C117.472 27.1213 117.377 27.0621 117.303 26.9902C117.227 26.9184 117.167 26.8296 117.123 26.726C117.078 26.6225 117.055 26.5105 117.055 26.39C117.055 26.1364 117.144 25.9229 117.32 25.7538C117.495 25.5868 117.713 25.5023 117.974 25.5023C118.211 25.5023 118.416 25.5868 118.589 25.758C118.763 25.9292 118.852 26.13 118.852 26.3625H118.422C118.422 26.2272 118.376 26.1194 118.282 26.037C118.189 25.9567 118.071 25.9144 117.927 25.9144C117.802 25.9144 117.698 25.9567 117.614 26.0412C117.529 26.1258 117.487 26.2294 117.487 26.3541C117.487 26.5083 117.544 26.6288 117.66 26.7134C117.739 26.7683 117.866 26.8233 118.043 26.8824C118.331 26.9754 118.538 27.0769 118.665 27.1826C118.843 27.3369 118.932 27.5461 118.932 27.8082C118.932 28.1062 118.837 28.3493 118.644 28.5353C118.452 28.7213 118.204 28.8164 117.904 28.8164C117.637 28.8164 117.409 28.717 117.22 28.5162C117.032 28.3176 116.939 28.0787 116.939 27.804H117.368V27.8124Z" fill="#C80823"/>
</g>
<defs>
<clipPath id="clip0_812_2712">
<rect width="124" height="30" fill="white"/>
</clipPath>
</defs>
</svg>
