<svg width="80" height="80" viewBox="0 0 80 80" fill="none" xmlns="http://www.w3.org/2000/svg">
<g filter="url(#filter0_d_845_510)">
<rect x="16" y="14" width="48" height="48" rx="12" fill="#FF7967" shape-rendering="crispEdges"/>
<path fill-rule="evenodd" clip-rule="evenodd" d="M49.3193 29.7411C49.8552 29.5965 50.3611 29.519 50.763 29.607C51.2346 29.7102 51.6393 29.9478 51.9063 30.3514C52.1804 30.7657 52.2269 31.2449 52.1214 31.7266C51.915 32.6698 51.5784 33.5735 51.1128 34.4366C50.6541 35.2869 50.1476 36.0182 49.5897 36.6235C49.0503 37.2088 48.494 37.7197 47.9201 38.1538C47.3534 38.5826 46.8203 38.9083 46.3238 39.113C45.8621 39.3032 45.3832 39.4252 44.9591 39.3324C44.4807 39.2277 44.0631 38.9047 43.6987 38.4908C43.3265 38.0682 43.0022 37.548 42.7198 36.9418C42.4211 36.3007 42.2318 35.5423 42.1377 34.6803C42.0415 33.7985 42.0915 32.9123 42.2858 32.0244C42.3299 31.8228 42.3745 31.6485 42.4205 31.5151C42.4848 31.329 42.5929 31.1598 42.7147 31.0089C42.9285 30.744 43.2253 30.6187 43.5312 30.5894C43.798 30.5638 44.0956 30.5981 44.4055 30.6659C44.8416 30.7614 45.3684 30.7701 45.997 30.6719C46.6485 30.5701 47.2145 30.4296 47.6991 30.2539C48.2407 30.0575 48.7808 29.8865 49.3193 29.7411ZM34.3869 31.2915C35.5842 30.9568 36.8162 30.9303 38.074 31.2056C38.3445 31.2648 38.5602 31.3151 38.7167 31.3563C38.8687 31.3963 39.0816 31.456 39.353 31.5346C39.642 31.6184 39.8998 31.7141 40.104 31.8294C40.2814 31.9296 40.4587 32.0504 40.6357 32.1893C40.8645 32.3688 41.0482 32.5981 41.146 32.8824C41.2393 33.1535 41.2463 33.4341 41.1862 33.709C41.0596 34.2872 41.0612 34.9332 41.2073 35.6551C41.3547 36.3836 41.6137 37.0922 41.9872 37.7819C42.0816 37.9552 42.2443 38.1915 42.4902 38.4966C42.7513 38.8207 42.9666 39.1047 43.1329 39.3466C43.226 39.4821 43.3089 39.6259 43.3636 39.7741C43.4167 39.9179 43.4604 40.112 43.4143 40.3224C43.307 40.8129 42.9139 41.2022 42.47 41.5147C42.0227 41.8296 41.5248 42.1117 40.9785 42.3625C40.475 42.5935 39.8767 42.8945 39.1822 43.267C38.5004 43.6327 37.9409 43.9824 37.4979 44.3148C37.0702 44.6459 36.675 45.0554 36.3138 45.5479C35.9284 46.0735 35.6599 46.4815 35.4973 46.7788C35.4028 46.9514 35.3107 47.1044 35.2232 47.2192C35.1815 47.2739 35.1213 47.3462 35.0441 47.408C34.9944 47.4477 34.7873 47.6077 34.4982 47.5444C33.9815 47.4313 33.474 47.0679 32.9831 46.5851C32.4703 46.0808 31.9859 45.4333 31.5254 44.6553C31.0664 43.88 30.6568 43.042 30.2956 42.1423C29.9238 41.2159 29.6762 40.2173 29.5498 39.149C29.4222 38.0708 29.4595 37.0494 29.6697 36.0892C29.9254 34.9205 30.4801 33.9062 31.3269 33.0577C32.1698 32.2131 33.1941 31.6249 34.3869 31.2915Z" fill="white"/>
</g>
<defs>
<filter id="filter0_d_845_510" x="0" y="0" width="80" height="80" filterUnits="userSpaceOnUse" color-interpolation-filters="sRGB">
<feFlood flood-opacity="0" result="BackgroundImageFix"/>
<feColorMatrix in="SourceAlpha" type="matrix" values="0 0 0 0 0 0 0 0 0 0 0 0 0 0 0 0 0 0 127 0" result="hardAlpha"/>
<feOffset dy="2"/>
<feGaussianBlur stdDeviation="8"/>
<feComposite in2="hardAlpha" operator="out"/>
<feColorMatrix type="matrix" values="0 0 0 0 1 0 0 0 0 0.47451 0 0 0 0 0.403922 0 0 0 0.36 0"/>
<feBlend mode="normal" in2="BackgroundImageFix" result="effect1_dropShadow_845_510"/>
<feBlend mode="normal" in="SourceGraphic" in2="effect1_dropShadow_845_510" result="shape"/>
</filter>
</defs>
</svg>
