<svg width="80" height="80" viewBox="0 0 80 80" fill="none" xmlns="http://www.w3.org/2000/svg">
<g filter="url(#filter0_d_845_3836)">
<rect x="16" y="14" width="48" height="48" rx="12" fill="#4DB4FF" shape-rendering="crispEdges"/>
<g clip-path="url(#clip0_845_3836)">
<path d="M31.8333 48.5H48.1666" stroke="white" stroke-width="1.5" stroke-linecap="round" stroke-linejoin="round"/>
<path d="M33 45H35.3333" stroke="white" stroke-width="1.5" stroke-linecap="round" stroke-linejoin="round"/>
<path d="M34.1667 45V48.5" stroke="white" stroke-width="1.5" stroke-linecap="round" stroke-linejoin="round"/>
<path d="M36.5 36.8333L40 40.3333L47 33.3333L43.5 29.8333L36.5 36.8333Z" fill="white" stroke="white" stroke-width="1.5" stroke-linecap="round" stroke-linejoin="round"/>
<path d="M38.25 38.5833L36.5 40.3333" stroke="white" stroke-width="1.5" stroke-linecap="round" stroke-linejoin="round"/>
<path d="M45.8333 27.5L49.3333 31" stroke="white" stroke-width="1.5" stroke-linecap="round" stroke-linejoin="round"/>
<path d="M40 48.5C41.4549 48.5001 42.8736 48.047 44.059 47.2035C45.2444 46.36 46.1375 45.1682 46.6142 43.7936C47.0909 42.4191 47.1275 40.9302 46.7189 39.5339C46.3102 38.1376 45.4767 36.9033 44.3342 36.0027" stroke="white" stroke-width="1.5" stroke-linecap="round" stroke-linejoin="round"/>
</g>
</g>
<defs>
<filter id="filter0_d_845_3836" x="0" y="0" width="80" height="80" filterUnits="userSpaceOnUse" color-interpolation-filters="sRGB">
<feFlood flood-opacity="0" result="BackgroundImageFix"/>
<feColorMatrix in="SourceAlpha" type="matrix" values="0 0 0 0 0 0 0 0 0 0 0 0 0 0 0 0 0 0 127 0" result="hardAlpha"/>
<feOffset dy="2"/>
<feGaussianBlur stdDeviation="8"/>
<feComposite in2="hardAlpha" operator="out"/>
<feColorMatrix type="matrix" values="0 0 0 0 0.301961 0 0 0 0 0.705882 0 0 0 0 1 0 0 0 0.36 0"/>
<feBlend mode="normal" in2="BackgroundImageFix" result="effect1_dropShadow_845_3836"/>
<feBlend mode="normal" in="SourceGraphic" in2="effect1_dropShadow_845_3836" result="shape"/>
</filter>
<clipPath id="clip0_845_3836">
<rect width="28" height="28" fill="white" transform="translate(26 24)"/>
</clipPath>
</defs>
</svg>
