<svg width="24" height="24" viewBox="0 0 24 24" fill="none" xmlns="http://www.w3.org/2000/svg">
<path d="M19.633 7.978C19.646 8.153 19.646 8.327 19.646 8.501C19.646 13.826 15.593 19.962 8.186 19.962C5.904 19.962 3.784 19.301 2 18.153C2.324 18.19 2.636 18.203 2.973 18.203C4.856 18.203 6.589 17.567 7.974 16.482C6.203 16.445 4.719 15.285 4.207 13.689C4.456 13.726 4.706 13.751 4.968 13.751C5.329 13.751 5.692 13.701 6.029 13.614C4.182 13.24 2.799 11.619 2.799 9.661V9.611C3.336 9.91 3.959 10.097 4.619 10.122C3.534 9.4 2.823 8.165 2.823 6.768C2.823 6.02 3.022 5.334 3.371 4.736C5.354 7.179 8.335 8.776 11.677 8.951C11.615 8.651 11.577 8.34 11.577 8.028C11.577 5.808 13.373 4 15.605 4C16.765 4 17.812 4.486 18.548 5.272C19.458 5.097 20.33 4.76 21.104 4.299C20.805 5.234 20.168 6.02 19.333 6.519C20.144 6.431 20.93 6.207 21.652 5.895C21.104 6.693 20.419 7.404 19.633 7.978Z" fill="#766B6B"/>
</svg>
